<svg width="1242" height="554" viewBox="0 0 1242 554" fill="none" xmlns="http://www.w3.org/2000/svg">
<circle cx="1179.53" cy="292.527" r="43.4706" transform="rotate(135 1179.53 292.527)" fill="#2D3FA2" fill-opacity="0.51"/>
<circle cx="1109.67" cy="222.667" r="29.639" transform="rotate(135 1109.67 222.667)" fill="#2D3FA2" fill-opacity="0.51"/>
<circle cx="1013.26" cy="278.555" r="20.7473" transform="rotate(135 1013.26 278.555)" fill="#2D3FA2" fill-opacity="0.51"/>
<circle cx="921.046" cy="305.101" r="11.8556" transform="rotate(135 921.046 305.101)" fill="#2D3FA2" fill-opacity="0.51"/>
<circle cx="851.186" cy="306.499" r="6.91578" transform="rotate(135 851.186 306.499)" fill="#2D3FA2" fill-opacity="0.51"/>
<circle cx="1078.93" cy="330.251" r="28.6511" transform="rotate(135 1078.93 330.251)" fill="#2D3FA2" fill-opacity="0.51"/>
<circle cx="983.92" cy="354.003" r="21.7353" transform="rotate(135 983.92 354.003)" fill="#2D3FA2" fill-opacity="0.51"/>
<circle cx="895.896" cy="369.373" r="19.7594" transform="rotate(135 895.896 369.373)" fill="#2D3FA2" fill-opacity="0.51"/>
<circle cx="817.653" cy="370.77" r="14.8195" transform="rotate(135 817.653 370.77)" fill="#2D3FA2" fill-opacity="0.51"/>
<circle cx="1017.79" cy="189.971" r="28.9804" transform="rotate(128.736 1017.79 189.971)" fill="#2D3FA2" fill-opacity="0.51"/>
<circle cx="966.411" cy="148.757" r="19.7594" transform="rotate(128.736 966.411 148.757)" fill="#2D3FA2" fill-opacity="0.51"/>
<circle cx="906.589" cy="192.805" r="13.8316" transform="rotate(128.736 906.589 192.805)" fill="#2D3FA2" fill-opacity="0.51"/>
<circle cx="847.41" cy="217.105" r="7.90374" transform="rotate(128.736 847.41 217.105)" fill="#2D3FA2" fill-opacity="0.51"/>
<circle cx="801.216" cy="223.112" r="4.61052" transform="rotate(128.736 801.216 223.112)" fill="#2D3FA2" fill-opacity="0.51"/>
<circle cx="953.867" cy="222.287" r="19.1007" transform="rotate(128.736 953.867 222.287)" fill="#2D3FA2" fill-opacity="0.51"/>
<circle cx="892.633" cy="244.938" r="14.4902" transform="rotate(128.736 892.633 244.938)" fill="#2D3FA2" fill-opacity="0.51"/>
<circle cx="835.418" cy="261.525" r="13.1729" transform="rotate(128.736 835.418 261.525)" fill="#2D3FA2" fill-opacity="0.51"/>
<circle cx="783.67" cy="268.142" r="9.87968" transform="rotate(128.736 783.67 268.142)" fill="#2D3FA2" fill-opacity="0.51"/>
<circle cx="61.4767" cy="261.276" r="43.4706" transform="rotate(-45 61.4767 261.276)" fill="#2D3FA2" fill-opacity="0.51"/>
<circle cx="131.337" cy="331.136" r="29.639" transform="rotate(-45 131.337 331.136)" fill="#2D3FA2" fill-opacity="0.51"/>
<circle cx="227.743" cy="275.248" r="20.7473" transform="rotate(-45 227.743 275.248)" fill="#2D3FA2" fill-opacity="0.51"/>
<circle cx="319.958" cy="248.701" r="11.8556" transform="rotate(-45 319.958 248.701)" fill="#2D3FA2" fill-opacity="0.51"/>
<circle cx="389.818" cy="247.304" r="6.91578" transform="rotate(-45 389.818 247.304)" fill="#2D3FA2" fill-opacity="0.51"/>
<circle cx="162.075" cy="223.551" r="28.6511" transform="rotate(-45 162.075 223.551)" fill="#2D3FA2" fill-opacity="0.51"/>
<circle cx="257.084" cy="199.799" r="21.7353" transform="rotate(-45 257.084 199.799)" fill="#2D3FA2" fill-opacity="0.51"/>
<circle cx="345.108" cy="184.43" r="19.7594" transform="rotate(-45 345.108 184.43)" fill="#2D3FA2" fill-opacity="0.51"/>
<circle cx="423.351" cy="183.033" r="14.8195" transform="rotate(-45 423.351 183.033)" fill="#2D3FA2" fill-opacity="0.51"/>
<circle cx="223.216" cy="363.832" r="28.9804" transform="rotate(-51.2636 223.216 363.832)" fill="#2D3FA2" fill-opacity="0.51"/>
<circle cx="274.593" cy="405.046" r="19.7594" transform="rotate(-51.2636 274.593 405.046)" fill="#2D3FA2" fill-opacity="0.51"/>
<circle cx="334.415" cy="360.997" r="13.8316" transform="rotate(-51.2636 334.415 360.997)" fill="#2D3FA2" fill-opacity="0.51"/>
<circle cx="393.594" cy="336.698" r="7.90374" transform="rotate(-51.2636 393.594 336.698)" fill="#2D3FA2" fill-opacity="0.51"/>
<circle cx="439.787" cy="330.691" r="4.61052" transform="rotate(-51.2636 439.787 330.691)" fill="#2D3FA2" fill-opacity="0.51"/>
<circle cx="287.137" cy="331.515" r="19.1007" transform="rotate(-51.2636 287.137 331.515)" fill="#2D3FA2" fill-opacity="0.51"/>
<circle cx="348.371" cy="308.864" r="14.4902" transform="rotate(-51.2636 348.371 308.864)" fill="#2D3FA2" fill-opacity="0.51"/>
<circle cx="405.585" cy="292.277" r="13.1729" transform="rotate(-51.2636 405.585 292.277)" fill="#2D3FA2" fill-opacity="0.51"/>
<circle cx="457.334" cy="285.66" r="9.87968" transform="rotate(-51.2636 457.334 285.66)" fill="#2D3FA2" fill-opacity="0.51"/>
</svg>
